<svg width="314" height="76" viewBox="0 0 314 76" fill="none" xmlns="http://www.w3.org/2000/svg">
<path d="M67.5625 32.9375H43.5346L66.2969 26.9279C66.5123 26.8711 66.7144 26.7722 66.8915 26.637C67.0685 26.5017 67.217 26.3327 67.3284 26.1397C67.4398 25.9467 67.5119 25.7336 67.5405 25.5126C67.5691 25.2917 67.5536 25.0672 67.495 24.8523L65.7738 18.5241C65.5368 17.6728 64.9741 16.949 64.2074 16.5096C63.4407 16.0701 62.5317 15.9504 61.6773 16.1764L29.5537 24.6561C29.126 24.7671 28.7247 24.9624 28.3733 25.2304C28.022 25.4984 27.7277 25.8338 27.5076 26.217C27.2863 26.5955 27.1433 27.0146 27.0871 27.4495C27.0309 27.8843 27.0627 28.326 27.1806 28.7483L28.75 34.5322V53.1875C28.75 54.0826 29.1056 54.941 29.7385 55.574C30.3715 56.2069 31.2299 56.5625 32.125 56.5625H65.875C66.7701 56.5625 67.6286 56.2069 68.2615 55.574C68.8944 54.941 69.25 54.0826 69.25 53.1875V34.625C69.25 34.1774 69.0722 33.7482 68.7557 33.4318C68.4393 33.1153 68.0101 32.9375 67.5625 32.9375ZM62.5338 19.4375L63.7994 24.0929L59.028 25.3585L53.0964 21.9329L62.5338 19.4375ZM48.4663 23.15L54.3979 26.5756L46.6059 28.6323L40.6743 25.2109L48.4663 23.15ZM31.7179 32.562L30.4523 27.9045L36.0421 26.428L41.9737 29.8578L31.7179 32.562ZM65.875 53.1875H32.125V36.3125H65.875V53.1875Z" fill="#FFC700"/>
<path d="M95.36 24.2V27.92H83.56V36.12H92.76V39.84H83.56V52H79V24.2H95.36ZM119.786 40.44C119.786 41.2667 119.733 42.0133 119.626 42.68H102.786C102.919 44.44 103.573 45.8533 104.746 46.92C105.919 47.9867 107.359 48.52 109.066 48.52C111.519 48.52 113.253 47.4933 114.266 45.44H119.186C118.519 47.4667 117.306 49.1333 115.546 50.44C113.813 51.72 111.653 52.36 109.066 52.36C106.959 52.36 105.066 51.8933 103.386 50.96C101.733 50 100.426 48.6667 99.4659 46.96C98.5326 45.2267 98.0659 43.2267 98.0659 40.96C98.0659 38.6933 98.5193 36.7067 99.4259 35C100.359 33.2667 101.653 31.9333 103.306 31C104.986 30.0667 106.906 29.6 109.066 29.6C111.146 29.6 112.999 30.0533 114.626 30.96C116.253 31.8667 117.519 33.1467 118.426 34.8C119.333 36.4267 119.786 38.3067 119.786 40.44ZM115.026 39C114.999 37.32 114.399 35.9733 113.226 34.96C112.053 33.9467 110.599 33.44 108.866 33.44C107.293 33.44 105.946 33.9467 104.826 34.96C103.706 35.9467 103.039 37.2933 102.826 39H115.026ZM144.473 40.44C144.473 41.2667 144.42 42.0133 144.313 42.68H127.473C127.607 44.44 128.26 45.8533 129.433 46.92C130.607 47.9867 132.047 48.52 133.753 48.52C136.207 48.52 137.94 47.4933 138.953 45.44H143.873C143.207 47.4667 141.993 49.1333 140.233 50.44C138.5 51.72 136.34 52.36 133.753 52.36C131.647 52.36 129.753 51.8933 128.073 50.96C126.42 50 125.113 48.6667 124.153 46.96C123.22 45.2267 122.753 43.2267 122.753 40.96C122.753 38.6933 123.207 36.7067 124.113 35C125.047 33.2667 126.34 31.9333 127.993 31C129.673 30.0667 131.593 29.6 133.753 29.6C135.833 29.6 137.687 30.0533 139.313 30.96C140.94 31.8667 142.207 33.1467 143.113 34.8C144.02 36.4267 144.473 38.3067 144.473 40.44ZM139.713 39C139.687 37.32 139.087 35.9733 137.913 34.96C136.74 33.9467 135.287 33.44 133.553 33.44C131.98 33.44 130.633 33.9467 129.513 34.96C128.393 35.9467 127.727 37.2933 127.513 39H139.713ZM147.441 40.88C147.441 38.6667 147.894 36.7067 148.801 35C149.734 33.2933 150.988 31.9733 152.561 31.04C154.161 30.08 155.934 29.6 157.881 29.6C159.321 29.6 160.734 29.92 162.121 30.56C163.534 31.1733 164.654 32 165.481 33.04V22.4H170.081V52H165.481V48.68C164.734 49.7467 163.694 50.6267 162.361 51.32C161.054 52.0133 159.548 52.36 157.841 52.36C155.921 52.36 154.161 51.88 152.561 50.92C150.988 49.9333 149.734 48.5733 148.801 46.84C147.894 45.08 147.441 43.0933 147.441 40.88ZM165.481 40.96C165.481 39.44 165.161 38.12 164.521 37C163.908 35.88 163.094 35.0267 162.081 34.44C161.068 33.8533 159.974 33.56 158.801 33.56C157.628 33.56 156.534 33.8533 155.521 34.44C154.508 35 153.681 35.84 153.041 36.96C152.428 38.0533 152.121 39.36 152.121 40.88C152.121 42.4 152.428 43.7333 153.041 44.88C153.681 46.0267 154.508 46.9067 155.521 47.52C156.561 48.1067 157.654 48.4 158.801 48.4C159.974 48.4 161.068 48.1067 162.081 47.52C163.094 46.9333 163.908 46.08 164.521 44.96C165.161 43.8133 165.481 42.48 165.481 40.96ZM202.821 24.2V27.92H191.021V36.12H200.221V39.84H191.021V52H186.461V24.2H202.821ZM209.367 27.04C208.54 27.04 207.847 26.76 207.287 26.2C206.727 25.64 206.447 24.9467 206.447 24.12C206.447 23.2933 206.727 22.6 207.287 22.04C207.847 21.48 208.54 21.2 209.367 21.2C210.167 21.2 210.847 21.48 211.407 22.04C211.967 22.6 212.247 23.2933 212.247 24.12C212.247 24.9467 211.967 25.64 211.407 26.2C210.847 26.76 210.167 27.04 209.367 27.04ZM211.607 29.96V52H207.047V29.96H211.607ZM222.154 22.4V52H217.594V22.4H222.154ZM254.821 29.6C256.554 29.6 258.101 29.96 259.461 30.68C260.847 31.4 261.927 32.4667 262.701 33.88C263.501 35.2933 263.901 37 263.901 39V52H259.381V39.68C259.381 37.7067 258.887 36.2 257.901 35.16C256.914 34.0933 255.567 33.56 253.861 33.56C252.154 33.56 250.794 34.0933 249.781 35.16C248.794 36.2 248.301 37.7067 248.301 39.68V52H243.781V39.68C243.781 37.7067 243.287 36.2 242.301 35.16C241.314 34.0933 239.967 33.56 238.261 33.56C236.554 33.56 235.194 34.0933 234.181 35.16C233.194 36.2 232.701 37.7067 232.701 39.68V52H228.141V29.96H232.701V32.48C233.447 31.5733 234.394 30.8667 235.541 30.36C236.687 29.8533 237.914 29.6 239.221 29.6C240.981 29.6 242.554 29.9733 243.941 30.72C245.327 31.4667 246.394 32.5467 247.141 33.96C247.807 32.6267 248.847 31.5733 250.261 30.8C251.674 30 253.194 29.6 254.821 29.6ZM289.903 40.44C289.903 41.2667 289.85 42.0133 289.743 42.68H272.903C273.036 44.44 273.69 45.8533 274.863 46.92C276.036 47.9867 277.476 48.52 279.183 48.52C281.636 48.52 283.37 47.4933 284.383 45.44H289.303C288.636 47.4667 287.423 49.1333 285.663 50.44C283.93 51.72 281.77 52.36 279.183 52.36C277.076 52.36 275.183 51.8933 273.503 50.96C271.85 50 270.543 48.6667 269.583 46.96C268.65 45.2267 268.183 43.2267 268.183 40.96C268.183 38.6933 268.636 36.7067 269.543 35C270.476 33.2667 271.77 31.9333 273.423 31C275.103 30.0667 277.023 29.6 279.183 29.6C281.263 29.6 283.116 30.0533 284.743 30.96C286.37 31.8667 287.636 33.1467 288.543 34.8C289.45 36.4267 289.903 38.3067 289.903 40.44ZM285.143 39C285.116 37.32 284.516 35.9733 283.343 34.96C282.17 33.9467 280.716 33.44 278.983 33.44C277.41 33.44 276.063 33.9467 274.943 34.96C273.823 35.9467 273.156 37.2933 272.943 39H285.143Z" fill="white"/>
</svg>
